# xmcd
# Track frame offsets:
# 150
# 14336
# 32034
# 55128
# 69462
# 90476
# 103550
# 113980
# 128586
# 149172
# 169082
# 190256
#
# Disc length: 2875 seconds
# Revision: 0
# Processed by: cddbd v1.5.2PL0 Copyright (c) Steve Scherf et al.
# Submitted via: VisiTrax 2.10.3.257 - For more info visit www.synapsa.com
#
DISCID=a30b390c
DTITLE=Graham, Tad Gravelmouth - Valentina
DYEAR=2002
DGENRE=
TTITLE0=I couldn't keep My Head On
TTITLE1=Bulldozers in the Dunes
TTITLE2=Blood Moon
TTITLE3=Somebody Bent My Beemer
TTITLE4=Doctor Faustus
TTITLE5=Hallelujah
TTITLE6=Big Mouth
TTITLE7=Dangerzone
TTITLE8=Blues from Sirius
TTITLE9=Cinderella got the Shoe
TTITLE10=Valentina
TTITLE11=Sunset On The Sunshine Beach
EXTD=
EXTT0=
EXTT1=
EXTT2=
EXTT3=
EXTT4=
EXTT5=
EXTT6=
EXTT7=
EXTT8=
EXTT9=
EXTT10=
EXTT11=
PLAYORDER=
